<?xml version="1.0" encoding="utf-8"?>
<!-- Generator: Adobe Illustrator 15.0.2, SVG Export Plug-In . SVG Version: 6.00 Build 0)  -->
<!DOCTYPE svg PUBLIC "-//W3C//DTD SVG 1.1//EN" "http://www.w3.org/Graphics/SVG/1.1/DTD/svg11.dtd">
<svg version="1.1" id="Layer_1" xmlns="http://www.w3.org/2000/svg" xmlns:xlink="http://www.w3.org/1999/xlink" x="0px" y="0px"
	 width="65px" height="55px" viewBox="0 0 65 55" enable-background="new 0 0 65 55" xml:space="preserve">
<g>
	<g>
		<g>
			<polygon fill="#231F20" points="56.676,48.972 8.109,48.972 8.109,9.391 40.438,9.391 42.827,7.001 44.581,5.248 3.967,5.248 
				3.967,53.114 60.818,53.114 60.818,15.991 56.676,20.133 			"/>
		</g>
		<g>
			
				<rect x="52.341" y="3.061" transform="matrix(-0.7071 -0.7072 0.7072 -0.7071 94.6148 50.3554)" fill="#231F20" width="10.792" height="5.038"/>
		</g>
		<g>
			
				<rect x="47.796" y="8.95" transform="matrix(-0.7072 -0.7071 0.7071 -0.7072 83.6466 54.8974)" fill="#231F20" width="10.792" height="2.353"/>
		</g>
	</g>
	<g>
		<path fill="#231F20" d="M54.064,16.886l-7.631-7.631L25.955,29.732h-0.003l-0.001,0.002l-0.001,0.003h0.001L22.278,41.04
			l11.303-3.673l0.005-0.002h-0.001L54.064,16.886z M25.009,38.311l2.409-7.576l5.006,5.006L25.009,38.311z M31.161,31.935
			l-2.582-2.583l17.954-17.954l2.582,2.583L31.161,31.935z"/>
	</g>
</g>
</svg>
